<?xml version="1.0" encoding="UTF-8"?><svg id="Layer_2" xmlns="http://www.w3.org/2000/svg" viewBox="0 0 598.09 592.41"><defs><style>.cls-1{fill:#1172ba;stroke-width:0px;}</style></defs><g id="Layer_1-2"><g id="QqgnBc"><path class="cls-1" d="m172.18,592.41H0V0c.82,0,1.92,0,3.02,0C200.14,0,397.26,0,594.38,0c3.7,0,3.71.01,3.71,3.67,0,35.5,0,71.01,0,106.51q0,4.02-3.96,4.07c-1.6.02-3.2.02-4.8.02-137.79,0-275.57,0-413.36,0q-4.36,0-4.36,4.37c.03,19.31.07,38.61.09,57.92.16,137.21.32,274.42.48,411.63,0,1.3,0,2.61,0,4.23Z"/><path class="cls-1" d="m240.13,357.5v-4.08c0-36.16.03-72.32-.06-108.49,0-2.81.65-3.65,3.58-3.65,75.25.09,150.5.08,225.74.03,2.44,0,3.44.45,3.43,3.22-.09,36.54-.09,73.08,0,109.62,0,2.71-.74,3.46-3.47,3.46-74.68-.09-149.36-.09-224.05-.11-1.59,0-3.18,0-5.17,0Z"/><path class="cls-1" d="m239.88,478.23h113.5v114.05h-113.5v-114.05Z"/></g></g></svg>